# xmcd
#
# Track frame offsets:
#  150
#  14978
#  28971
#  41128
#  50329
#  62055
#  72341
#  85270
#  96603
#  108155
#  121472
#  135559
#  147526
#  157789
#  163199
#  175380
#
# Disc length: 2481 seconds
#
# Revision: 0
# Processed by: cddbd v1.5.2PL0 Copyright (c) Steve Scherf et al.
# Submitted via: Collectorz.com_Music_Collector 6.11
#
DISCID=ef09af10
DTITLE=Various Artist - Kings Of Country
DYEAR=1900
DGENRE=Country
TTITLE0=Bill Anderson - Green Green Grass Of Home
TTITLE1=Bill Anderson - The Unicorn
TTITLE2=Conway Twitty - Shake It Up Baby
TTITLE3=Conway Twitty - The Road That I Walk
TTITLE4=Faron Young - I Heard The Jukebox Playing
TTITLE5=Faron Young - If You Ain't Lovin'(You Ain't Livin')
TTITLE6=Glen Campbell - Rhinestone Cowboy (Live)
TTITLE7=Hank Thompson - Smokey The Bar
TTITLE8=Roy Clark - The Most Beautiful Girl (In The World)
TTITLE9=Roy Clark - Come Live With Me
TTITLE10=Tommy Overstreet - Heart Of Dixie
TTITLE11=Waylon Jennings - Don't Think Twice, It's Alright
TTITLE12=Waylon Jennings - White Lightning
TTITLE13=Webb Pierce - There Stands The Gliss
TTITLE14=Willie Nelson - Shelter Of My Arms
TTITLE15=Willie Nelson - Touch Me
EXTD=
EXTT0=
EXTT1=
EXTT2=
EXTT3=
EXTT4=
EXTT5=
EXTT6=
EXTT7=
EXTT8=
EXTT9=
EXTT10=
EXTT11=
EXTT12=
EXTT13=
EXTT14=
EXTT15=
PLAYORDER=
